HIERARCHY
ROOT Hips
{
  OFFSET 0.000000 95.000000 0.000000
  CHANNELS 6 Xposition Yposition Zposition Zrotation Xrotation Yrotation
  JOINT Spine
  {
    OFFSET 0.000000 10.000000 0.000000
    CHANNELS 3 Zrotation Xrotation Yrotation
    JOINT Spine1
    {
      OFFSET 0.000000 12.000000 0.000000
      CHANNELS 3 Zrotation Xrotation Yrotation
      JOINT Spine2
      {
        OFFSET 0.000000 12.000000 0.000000
        CHANNELS 3 Zrotation Xrotation Yrotation
        JOINT Neck
        {
          OFFSET 0.000000 10.000000 0.000000
          CHANNELS 3 Zrotation Xrotation Yrotation
          JOINT Head
          {
            OFFSET 0.000000 8.000000 0.000000
            CHANNELS 3 Zrotation Xrotation Yrotation
            End Site
            {
              OFFSET 0.000000 10.000000 0.000000
            }
          }
        }
        JOINT LeftShoulder
        {
          OFFSET 6.000000 8.000000 0.000000
          CHANNELS 3 Zrotation Xrotation Yrotation
          JOINT LeftArm
          {
            OFFSET 12.000000 0.000000 0.000000
            CHANNELS 3 Zrotation Xrotation Yrotation
            JOINT LeftForeArm
            {
              OFFSET 24.000000 0.000000 0.000000
              CHANNELS 3 Zrotation Xrotation Yrotation
              JOINT LeftHand
              {
                OFFSET 22.000000 0.000000 0.000000
                CHANNELS 3 Zrotation Xrotation Yrotation
                JOINT LeftHandThumb1
                {
                  OFFSET 1.800000 -1.400000 0.500000
                  CHANNELS 3 Zrotation Xrotation Yrotation
                  JOINT LeftHandThumb2
                  {
                    OFFSET 2.400000 0.000000 0.000000
                    CHANNELS 3 Zrotation Xrotation Yrotation
                    JOINT LeftHandThumb3
                    {
                      OFFSET 1.900000 0.000000 0.000000
                      CHANNELS 3 Zrotation Xrotation Yrotation
                      End Site
                      {
                        OFFSET 1.600000 0.000000 0.000000
                      }
                    }
                  }
                }
                JOINT LeftHandIndex1
                {
                  OFFSET 6.600000 1.200000 0.300000
                  CHANNELS 3 Zrotation Xrotation Yrotation
                  JOINT LeftHandIndex2
                  {
                    OFFSET 2.000000 0.000000 0.000000
                    CHANNELS 3 Zrotation Xrotation Yrotation
                    JOINT LeftHandIndex3
                    {
                      OFFSET 1.200000 0.000000 0.000000
                      CHANNELS 3 Zrotation Xrotation Yrotation
                      End Site
                      {
                        OFFSET 1.000000 0.000000 0.000000
                      }
                    }
                  }
                }
                JOINT LeftHandMiddle1
                {
                  OFFSET 7.200000 0.000000 0.300000
                  CHANNELS 3 Zrotation Xrotation Yrotation
                  JOINT LeftHandMiddle2
                  {
                    OFFSET 3.000000 0.000000 0.000000
                    CHANNELS 3 Zrotation Xrotation Yrotation
                    JOINT LeftHandMiddle3
                    {
                      OFFSET 2.000000 0.000000 0.000000
                      CHANNELS 3 Zrotation Xrotation Yrotation
                      End Site
                      {
                        OFFSET 1.600000 0.000000 0.000000
                      }
                    }
                  }
                }
                JOINT LeftHandRing1
                {
                  OFFSET 7.100000 -1.000000 0.400000
                  CHANNELS 3 Zrotation Xrotation Yrotation
                  JOINT LeftHandRing2
                  {
                    OFFSET 2.600000 0.000000 0.000000
                    CHANNELS 3 Zrotation Xrotation Yrotation
                    JOINT LeftHandRing3
                    {
                      OFFSET 1.600000 0.000000 0.000000
                      CHANNELS 3 Zrotation Xrotation Yrotation
                      End Site
                      {
                        OFFSET 1.300000 0.000000 0.000000
                      }
                    }
                  }
                }
                JOINT LeftHandPinky1
                {
                  OFFSET 6.500000 -2.000000 0.500000
                  CHANNELS 3 Zrotation Xrotation Yrotation
                  JOINT LeftHandPinky2
                  {
                    OFFSET 1.900000 0.000000 0.000000
                    CHANNELS 3 Zrotation Xrotation Yrotation
                    JOINT LeftHandPinky3
                    {
                      OFFSET 1.400000 0.000000 0.000000
                      CHANNELS 3 Zrotation Xrotation Yrotation
                      End Site
                      {
                        OFFSET 1.300000 0.000000 0.000000
                      }
                    }
                  }
                }
              }
            }
          }
        }
        JOINT RightShoulder
        {
          OFFSET -6.000000 8.000000 0.000000
          CHANNELS 3 Zrotation Xrotation Yrotation
          JOINT RightArm
          {
            OFFSET -12.000000 0.000000 0.000000
            CHANNELS 3 Zrotation Xrotation Yrotation
            JOINT RightForeArm
            {
              OFFSET -24.000000 0.000000 0.000000
              CHANNELS 3 Zrotation Xrotation Yrotation
              JOINT RightHand
              {
                OFFSET -22.000000 0.000000 0.000000
                CHANNELS 3 Zrotation Xrotation Yrotation
                JOINT RightHandThumb1
                {
                  OFFSET -1.800000 -1.400000 0.500000
                  CHANNELS 3 Zrotation Xrotation Yrotation
                  JOINT RightHandThumb2
                  {
                    OFFSET -2.400000 0.000000 0.000000
                    CHANNELS 3 Zrotation Xrotation Yrotation
                    JOINT RightHandThumb3
                    {
                      OFFSET -1.900000 0.000000 0.000000
                      CHANNELS 3 Zrotation Xrotation Yrotation
                      End Site
                      {
                        OFFSET -1.600000 0.000000 0.000000
                      }
                    }
                  }
                }
                JOINT RightHandIndex1
                {
                  OFFSET -6.600000 1.200000 0.300000
                  CHANNELS 3 Zrotation Xrotation Yrotation
                  JOINT RightHandIndex2
                  {
                    OFFSET -2.000000 0.000000 0.000000
                    CHANNELS 3 Zrotation Xrotation Yrotation
                    JOINT RightHandIndex3
                    {
                      OFFSET -1.200000 0.000000 0.000000
                      CHANNELS 3 Zrotation Xrotation Yrotation
                      End Site
                      {
                        OFFSET -1.000000 0.000000 0.000000
                      }
                    }
                  }
                }
                JOINT RightHandMiddle1
                {
                  OFFSET -7.200000 0.000000 0.300000
                  CHANNELS 3 Zrotation Xrotation Yrotation
                  JOINT RightHandMiddle2
                  {
                    OFFSET -3.000000 0.000000 0.000000
                    CHANNELS 3 Zrotation Xrotation Yrotation
                    JOINT RightHandMiddle3
                    {
                      OFFSET -2.000000 0.000000 0.000000
                      CHANNELS 3 Zrotation Xrotation Yrotation
                      End Site
                      {
                        OFFSET -1.600000 0.000000 0.000000
                      }
                    }
                  }
                }
                JOINT RightHandRing1
                {
                  OFFSET -7.100000 -1.000000 0.400000
                  CHANNELS 3 Zrotation Xrotation Yrotation
                  JOINT RightHandRing2
                  {
                    OFFSET -2.600000 0.000000 0.000000
                    CHANNELS 3 Zrotation Xrotation Yrotation
                    JOINT RightHandRing3
                    {
                      OFFSET -1.600000 0.000000 0.000000
                      CHANNELS 3 Zrotation Xrotation Yrotation
                      End Site
                      {
                        OFFSET -1.300000 0.000000 0.000000
                      }
                    }
                  }
                }
                JOINT RightHandPinky1
                {
                  OFFSET -6.500000 -2.000000 0.500000
                  CHANNELS 3 Zrotation Xrotation Yrotation
                  JOINT RightHandPinky2
                  {
                    OFFSET -1.900000 0.000000 0.000000
                    CHANNELS 3 Zrotation Xrotation Yrotation
                    JOINT RightHandPinky3
                    {
                      OFFSET -1.400000 0.000000 0.000000
                      CHANNELS 3 Zrotation Xrotation Yrotation
                      End Site
                      {
                        OFFSET -1.300000 0.000000 0.000000
                      }
                    }
                  }
                }
              }
            }
          }
        }
      }
    }
  }
  JOINT LeftUpLeg
  {
    OFFSET 10.000000 -5.000000 0.000000
    CHANNELS 3 Zrotation Xrotation Yrotation
    JOINT LeftLeg
    {
      OFFSET 0.000000 -42.000000 0.000000
      CHANNELS 3 Zrotation Xrotation Yrotation
      JOINT LeftFoot
      {
        OFFSET 0.000000 -42.000000 4.000000
        CHANNELS 3 Zrotation Xrotation Yrotation
        End Site
        {
          OFFSET 0.000000 0.000000 12.000000
        }
      }
    }
  }
  JOINT RightUpLeg
  {
    OFFSET -10.000000 -5.000000 0.000000
    CHANNELS 3 Zrotation Xrotation Yrotation
    JOINT RightLeg
    {
      OFFSET 0.000000 -42.000000 0.000000
      CHANNELS 3 Zrotation Xrotation Yrotation
      JOINT RightFoot
      {
        OFFSET 0.000000 -42.000000 4.000000
        CHANNELS 3 Zrotation Xrotation Yrotation
        End Site
        {
          OFFSET 0.000000 0.000000 12.000000
        }
      }
    }
  }
}
MOTION
Frames: 8
Frame Time: 0.033333
0.0000 95.0000 0.0000 0.0000 0.0000 0.0000 0.0000 0.0000 0.0000 0.0000 0.0000 0.0000 0.0000 0.0000 0.0000 0.0000 0.0000 0.0000 0.0000 0.0000 0.0000 0.0000 0.0000 0.0000 -78.5085 -0.5269 -0.6448 -9.6018 -3.1377 4.4504 8.5333 2.5621 -7.3650 58.9284 -11.5445 7.0775 14.4709 0.0000 0.0000 5.0896 0.0000 0.0000 -8.0725 0.8926 -4.8347 32.8440 0.0000 0.0000 7.1396 0.0000 0.0000 3.6807 -0.0608 -2.8800 49.1829 0.0000 0.0000 20.5405 0.0000 0.0000 9.4060 -0.7128 -3.2609 64.4978 0.0000 0.0000 25.5302 0.0000 0.0000 17.0986 -1.2860 -0.1304 55.1091 0.0000 0.0000 18.4654 0.0000 0.0000 0.0000 0.0000 0.0000 84.9965 -6.3188 6.8948 -4.0198 8.6715 8.2264 -168.9199 36.2472 -79.5704 -37.5812 -31.0900 71.0629 28.9001 0.0000 0.0000 5.5924 0.0000 0.0000 32.4769 -8.5851 82.0662 19.5631 0.0000 0.0000 10.1353 0.0000 0.0000 23.4620 -19.9168 85.2029 17.4632 0.0000 0.0000 31.1624 0.0000 0.0000 17.7364 -26.3871 80.0105 21.1437 0.0000 0.0000 9.7512 0.0000 0.0000 17.7597 -36.2115 72.7607 29.3964 0.0000 0.0000 46.3081 0.0000 0.0000 0.0000 0.0000 0.0000 0.0000 0.0000 0.0000 0.0000 0.0000 0.0000 0.0000 0.0000 0.0000 0.0000 0.0000 0.0000 0.0000 0.0000 0.0000
0.0000 95.0000 0.0000 0.0000 0.0000 0.0000 0.0000 0.0000 0.0000 0.0000 0.0000 0.0000 0.0000 0.0000 0.0000 0.0000 0.0000 0.0000 0.0000 0.0000 0.0000 0.0000 0.0000 0.0000 -78.5036 -0.3201 -0.3918 -9.6566 -3.3575 4.8234 8.4925 3.0865 -7.9125 58.9284 -11.5445 7.0775 14.4709 0.0000 0.0000 5.0896 0.0000 0.0000 -8.0725 0.8926 -4.8347 32.8440 0.0000 0.0000 7.1396 0.0000 0.0000 3.6807 -0.0608 -2.8800 49.1829 0.0000 0.0000 20.5405 0.0000 0.0000 9.4060 -0.7128 -3.2609 64.4978 0.0000 0.0000 25.5302 0.0000 0.0000 17.0986 -1.2860 -0.1304 55.1091 0.0000 0.0000 18.4654 0.0000 0.0000 0.0000 0.0000 0.0000 84.8960 -6.2496 6.8314 -3.7729 8.6376 8.2781 -169.0381 36.1253 -79.5954 -37.5812 -31.0900 71.0629 28.9001 0.0000 0.0000 5.5924 0.0000 0.0000 32.4769 -8.5851 82.0662 19.5631 0.0000 0.0000 10.1353 0.0000 0.0000 23.4620 -19.9168 85.2029 17.4632 0.0000 0.0000 31.1624 0.0000 0.0000 17.7364 -26.3871 80.0105 21.1437 0.0000 0.0000 9.7512 0.0000 0.0000 17.7597 -36.2115 72.7607 29.3964 0.0000 0.0000 46.3081 0.0000 0.0000 0.0000 0.0000 0.0000 0.0000 0.0000 0.0000 0.0000 0.0000 0.0000 0.0000 0.0000 0.0000 0.0000 0.0000 0.0000 0.0000 0.0000 0.0000
0.0000 95.0000 0.0000 0.0000 0.0000 0.0000 0.0000 0.0000 0.0000 0.0000 0.0000 0.0000 0.0000 0.0000 0.0000 0.0000 0.0000 0.0000 0.0000 0.0000 0.0000 0.0000 0.0000 0.0000 -78.4607 -0.1456 -0.1784 -10.0543 -3.2885 4.8014 8.8278 3.2740 -8.0622 58.9284 -11.5445 7.0775 14.4709 0.0000 0.0000 5.0896 0.0000 0.0000 -8.0725 0.8926 -4.8347 32.8440 0.0000 0.0000 7.1396 0.0000 0.0000 3.6807 -0.0608 -2.8800 49.1829 0.0000 0.0000 20.5405 0.0000 0.0000 9.4060 -0.7128 -3.2609 64.4978 0.0000 0.0000 25.5302 0.0000 0.0000 17.0986 -1.2860 -0.1304 55.1091 0.0000 0.0000 18.4654 0.0000 0.0000 0.0000 0.0000 0.0000 84.6567 -6.4957 7.1301 -3.1471 8.7521 8.5711 -168.6570 35.6850 -79.9299 -37.5812 -31.0900 71.0629 28.9001 0.0000 0.0000 5.5924 0.0000 0.0000 32.4769 -8.5851 82.0662 19.5631 0.0000 0.0000 10.1353 0.0000 0.0000 23.4620 -19.9168 85.2029 17.4632 0.0000 0.0000 31.1624 0.0000 0.0000 17.7364 -26.3871 80.0105 21.1437 0.0000 0.0000 9.7512 0.0000 0.0000 17.7597 -36.2115 72.7607 29.3964 0.0000 0.0000 46.3081 0.0000 0.0000 0.0000 0.0000 0.0000 0.0000 0.0000 0.0000 0.0000 0.0000 0.0000 0.0000 0.0000 0.0000 0.0000 0.0000 0.0000 0.0000 0.0000 0.0000
0.0000 95.0000 0.0000 0.0000 0.0000 0.0000 0.0000 0.0000 0.0000 0.0000 0.0000 0.0000 0.0000 0.0000 0.0000 0.0000 0.0000 0.0000 0.0000 0.0000 0.0000 0.0000 0.0000 0.0000 -78.4633 0.0339 0.0415 -10.0994 -3.3811 4.9851 8.8183 3.6139 -8.4129 58.9284 -11.5445 7.0775 14.4709 0.0000 0.0000 5.0896 0.0000 0.0000 -8.0725 0.8926 -4.8347 32.8440 0.0000 0.0000 7.1396 0.0000 0.0000 3.6807 -0.0608 -2.8800 49.1829 0.0000 0.0000 20.5405 0.0000 0.0000 9.4060 -0.7128 -3.2609 64.4978 0.0000 0.0000 25.5302 0.0000 0.0000 17.0986 -1.2860 -0.1304 55.1091 0.0000 0.0000 18.4654 0.0000 0.0000 0.0000 0.0000 0.0000 84.3173 -6.6679 7.3626 -2.5868 8.7034 8.7104 -168.4716 35.4190 -80.1192 -37.5812 -31.0900 71.0629 28.9001 0.0000 0.0000 5.5924 0.0000 0.0000 32.4769 -8.5851 82.0662 19.5631 0.0000 0.0000 10.1353 0.0000 0.0000 23.4620 -19.9168 85.2029 17.4632 0.0000 0.0000 31.1624 0.0000 0.0000 17.7364 -26.3871 80.0105 21.1437 0.0000 0.0000 9.7512 0.0000 0.0000 17.7597 -36.2115 72.7607 29.3964 0.0000 0.0000 46.3081 0.0000 0.0000 0.0000 0.0000 0.0000 0.0000 0.0000 0.0000 0.0000 0.0000 0.0000 0.0000 0.0000 0.0000 0.0000 0.0000 0.0000 0.0000 0.0000 0.0000
0.0000 95.0000 0.0000 0.0000 0.0000 0.0000 0.0000 0.0000 0.0000 0.0000 0.0000 0.0000 0.0000 0.0000 0.0000 0.0000 0.0000 0.0000 0.0000 0.0000 0.0000 0.0000 0.0000 0.0000 -78.3377 0.0894 0.1098 -10.2078 -3.3827 5.0232 8.7882 3.6947 -8.5003 58.9284 -11.5445 7.0775 14.4709 0.0000 0.0000 5.0896 0.0000 0.0000 -8.0725 0.8926 -4.8347 32.8440 0.0000 0.0000 7.1396 0.0000 0.0000 3.6807 -0.0608 -2.8800 49.1829 0.0000 0.0000 20.5405 0.0000 0.0000 9.4060 -0.7128 -3.2609 64.4978 0.0000 0.0000 25.5302 0.0000 0.0000 17.0986 -1.2860 -0.1304 55.1091 0.0000 0.0000 18.4654 0.0000 0.0000 0.0000 0.0000 0.0000 84.1682 -6.3647 7.0462 -2.0221 8.6968 8.9047 -168.8494 35.1050 -80.1556 -37.5812 -31.0900 71.0629 28.9001 0.0000 0.0000 5.5924 0.0000 0.0000 32.4769 -8.5851 82.0662 19.5631 0.0000 0.0000 10.1353 0.0000 0.0000 23.4620 -19.9168 85.2029 17.4632 0.0000 0.0000 31.1624 0.0000 0.0000 17.7364 -26.3871 80.0105 21.1437 0.0000 0.0000 9.7512 0.0000 0.0000 17.7597 -36.2115 72.7607 29.3964 0.0000 0.0000 46.3081 0.0000 0.0000 0.0000 0.0000 0.0000 0.0000 0.0000 0.0000 0.0000 0.0000 0.0000 0.0000 0.0000 0.0000 0.0000 0.0000 0.0000 0.0000 0.0000 0.0000
0.0000 95.0000 0.0000 0.0000 0.0000 0.0000 0.0000 0.0000 0.0000 0.0000 0.0000 0.0000 0.0000 0.0000 0.0000 0.0000 0.0000 0.0000 0.0000 0.0000 0.0000 0.0000 0.0000 0.0000 -77.9902 0.3984 0.4920 -10.6511 -3.1448 4.8237 8.8835 3.8397 -8.6358 58.9284 -11.5445 7.0775 14.4709 0.0000 0.0000 5.0896 0.0000 0.0000 -8.0725 0.8926 -4.8347 32.8440 0.0000 0.0000 7.1396 0.0000 0.0000 3.6807 -0.0608 -2.8800 49.1829 0.0000 0.0000 20.5405 0.0000 0.0000 9.4060 -0.7128 -3.2609 64.4978 0.0000 0.0000 25.5302 0.0000 0.0000 17.0986 -1.2860 -0.1304 55.1091 0.0000 0.0000 18.4654 0.0000 0.0000 0.0000 0.0000 0.0000 83.8887 -5.8471 6.5052 -0.8318 8.8252 9.4432 -169.3607 34.3750 -80.3454 -37.5812 -31.0900 71.0629 28.9001 0.0000 0.0000 5.5924 0.0000 0.0000 32.4769 -8.5851 82.0662 19.5631 0.0000 0.0000 10.1353 0.0000 0.0000 23.4620 -19.9168 85.2029 17.4632 0.0000 0.0000 31.1624 0.0000 0.0000 17.7364 -26.3871 80.0105 21.1437 0.0000 0.0000 9.7512 0.0000 0.0000 17.7597 -36.2115 72.7607 29.3964 0.0000 0.0000 46.3081 0.0000 0.0000 0.0000 0.0000 0.0000 0.0000 0.0000 0.0000 0.0000 0.0000 0.0000 0.0000 0.0000 0.0000 0.0000 0.0000 0.0000 0.0000 0.0000 0.0000
0.0000 95.0000 0.0000 0.0000 0.0000 0.0000 0.0000 0.0000 0.0000 0.0000 0.0000 0.0000 0.0000 0.0000 0.0000 0.0000 0.0000 0.0000 0.0000 0.0000 0.0000 0.0000 0.0000 0.0000 -78.0836 0.8638 1.0651 -10.2722 -2.8092 4.3954 8.6138 3.9450 -8.7827 58.9284 -11.5445 7.0775 14.4709 0.0000 0.0000 5.0896 0.0000 0.0000 -8.0725 0.8926 -4.8347 32.8440 0.0000 0.0000 7.1396 0.0000 0.0000 3.6807 -0.0608 -2.8800 49.1829 0.0000 0.0000 20.5405 0.0000 0.0000 9.4060 -0.7128 -3.2609 64.4978 0.0000 0.0000 25.5302 0.0000 0.0000 17.0986 -1.2860 -0.1304 55.1091 0.0000 0.0000 18.4654 0.0000 0.0000 0.0000 0.0000 0.0000 82.3840 -5.4924 6.2742 2.2493 11.7241 13.9357 -165.8646 33.0807 -82.1402 -37.5812 -31.0900 71.0629 28.9001 0.0000 0.0000 5.5924 0.0000 0.0000 32.4769 -8.5851 82.0662 19.5631 0.0000 0.0000 10.1353 0.0000 0.0000 23.4620 -19.9168 85.2029 17.4632 0.0000 0.0000 31.1624 0.0000 0.0000 17.7364 -26.3871 80.0105 21.1437 0.0000 0.0000 9.7512 0.0000 0.0000 17.7597 -36.2115 72.7607 29.3964 0.0000 0.0000 46.3081 0.0000 0.0000 0.0000 0.0000 0.0000 0.0000 0.0000 0.0000 0.0000 0.0000 0.0000 0.0000 0.0000 0.0000 0.0000 0.0000 0.0000 0.0000 0.0000 0.0000
0.0000 95.0000 0.0000 0.0000 0.0000 0.0000 0.0000 0.0000 0.0000 0.0000 0.0000 0.0000 0.0000 0.0000 0.0000 0.0000 0.0000 0.0000 0.0000 0.0000 0.0000 0.0000 0.0000 0.0000 -77.7603 1.8982 2.3540 -10.4380 -1.8752 3.3067 8.5267 4.0910 -8.9462 58.9284 -11.5445 7.0775 14.4709 0.0000 0.0000 5.0896 0.0000 0.0000 -8.0725 0.8926 -4.8347 32.8440 0.0000 0.0000 7.1396 0.0000 0.0000 3.6807 -0.0608 -2.8800 49.1829 0.0000 0.0000 20.5405 0.0000 0.0000 9.4060 -0.7128 -3.2609 64.4978 0.0000 0.0000 25.5302 0.0000 0.0000 17.0986 -1.2860 -0.1304 55.1091 0.0000 0.0000 18.4654 0.0000 0.0000 0.0000 0.0000 0.0000 80.4462 -5.8372 6.8994 7.3987 15.7620 21.5993 -159.3322 30.8355 -85.7093 -37.5812 -31.0900 71.0629 28.9001 0.0000 0.0000 5.5924 0.0000 0.0000 32.4769 -8.5851 82.0662 19.5631 0.0000 0.0000 10.1353 0.0000 0.0000 23.4620 -19.9168 85.2029 17.4632 0.0000 0.0000 31.1624 0.0000 0.0000 17.7364 -26.3871 80.0105 21.1437 0.0000 0.0000 9.7512 0.0000 0.0000 17.7597 -36.2115 72.7607 29.3964 0.0000 0.0000 46.3081 0.0000 0.0000 0.0000 0.0000 0.0000 0.0000 0.0000 0.0000 0.0000 0.0000 0.0000 0.0000 0.0000 0.0000 0.0000 0.0000 0.0000 0.0000 0.0000 0.0000
